<?xml version="1.0" encoding="UTF-8" standalone="no"?>
<!-- Created with Inkscape (http://www.inkscape.org/) -->

<svg
   xmlns:dc="http://purl.org/dc/elements/1.1/"
   xmlns:cc="http://creativecommons.org/ns#"
   xmlns:rdf="http://www.w3.org/1999/02/22-rdf-syntax-ns#"
   xmlns:svg="http://www.w3.org/2000/svg"
   xmlns="http://www.w3.org/2000/svg"
   xmlns:sodipodi="http://sodipodi.sourceforge.net/DTD/sodipodi-0.dtd"
   xmlns:inkscape="http://www.inkscape.org/namespaces/inkscape"
   width="210mm"
   height="297mm"
   viewBox="0 0 210 297"
   version="1.1"
   id="svg8"
   inkscape:version="0.92.3 (2405546, 2018-03-11)"
   sodipodi:docname="severino.svg">
  <defs
     id="defs2" />
  <sodipodi:namedview
     id="base"
     pagecolor="#ffffff"
     bordercolor="#666666"
     borderopacity="1.0"
     inkscape:pageopacity="0.0"
     inkscape:pageshadow="2"
     inkscape:zoom="0.35"
     inkscape:cx="-355.99775"
     inkscape:cy="678.30156"
     inkscape:document-units="mm"
     inkscape:current-layer="layer1-6"
     showgrid="false"
     inkscape:window-width="1920"
     inkscape:window-height="1023"
     inkscape:window-x="0"
     inkscape:window-y="0"
     inkscape:window-maximized="1" />
  <metadata
     id="metadata5">
    <rdf:RDF>
      <cc:Work
         rdf:about="">
        <dc:format>image/svg+xml</dc:format>
        <dc:type
           rdf:resource="http://purl.org/dc/dcmitype/StillImage" />
        <dc:title />
      </cc:Work>
    </rdf:RDF>
  </metadata>
  <g
     inkscape:label="Camada 1"
     inkscape:groupmode="layer"
     id="layer1">
    <g
       transform="matrix(0.26458333,0,0,0.26458333,1.1395681,-9.894688)"
       inkscape:label="Camada 1"
       id="layer1-6">
      <g
         id="g4924"
         transform="matrix(1.7319354,0,0,1.7319354,-119.90099,-568.11844)">
        <ellipse
           ry="83.793205"
           rx="108.85286"
           cy="479.90576"
           cx="298.36649"
           id="path3930"
           style="fill:#ffe6d5;fill-opacity:0.98233002;stroke:#000000;stroke-width:3.89339995"
           transform="matrix(0.99975,0,0,1.0557,0.075013,-22.055)" />
        <path
           inkscape:connector-curvature="0"
           id="path3959-9"
           style="fill:#784421;fill-opacity:0.98233002;stroke:#000000;stroke-width:4"
           d="m 299.93,358.52 c -45.412,0 -82.229,31.961 -82.229,71.37 0,2.8794 0.23432,5.7262 0.61636,8.5163 h 163.26 c 0.38203,-2.7902 0.58009,-5.637 0.58009,-8.5163 0,-39.41 -36.817,-71.37 -82.229,-71.37 z" />
        <path
           inkscape:connector-curvature="0"
           id="path3959"
           style="fill:#a05a2c;fill-opacity:0.98233002;stroke:#000000;stroke-width:4"
           d="m 296.4,381.82 c -70.388,0 -127.45,26.792 -127.45,59.828 0,2.4137 0.36321,4.8001 0.95535,7.1391 h 253.06 c 0.59214,-2.3389 0.89915,-4.7254 0.89915,-7.1391 0,-33.036 -57.067,-59.828 -127.45,-59.828 z" />
        <path
           id="path3986-1"
           style="fill:#e3dbdb;fill-opacity:0.98233002;stroke:#000000;stroke-width:4"
           sodipodi:type="star"
           sodipodi:sides="5"
           sodipodi:r1="19.640402"
           sodipodi:r2="9.8202009"
           sodipodi:arg1="1.160669"
           sodipodi:arg2="1.7889875"
           transform="translate(346.39,31.123)"
           inkscape:randomized="0"
           sodipodi:cy="390.63077"
           sodipodi:cx="3.1324563"
           inkscape:rounded="0"
           inkscape:flatsided="false"
           d="m 10.963597,408.64239 -9.956861,-8.42425 -12.584397,3.42638 4.9351031,-12.07277 -7.1474791,-10.90966 13.00692262,0.96287 8.16701198,-10.16893 3.1036174,12.66786 12.19497,4.62492 -11.088782,6.8663 z" />
        <path
           inkscape:connector-curvature="0"
           id="path4069"
           style="fill:none;stroke:#000000;stroke-width:4"
           d="m 309.43,475.36 c 18.758,-8.0778 43.276,-9.4268 64.337,-14.851" />
        <path
           id="path4036-5"
           sodipodi:rx="19.186296"
           sodipodi:ry="19.577852"
           style="fill:#ffffff;fill-opacity:0.98233002;stroke:#000000;stroke-width:11.53199959"
           sodipodi:type="arc"
           d="m 260.77699,479.90576 a 19.186296,19.577852 0 0 1 -5.96969,14.19195 19.186296,19.577852 0 0 1 -14.19422,5.36047"
           sodipodi:open="true"
           inkscape:transform-center-x="45.650852"
           inkscape:transform-center-y="1.2533337"
           transform="matrix(-0.28276,-0.16425,0.59905,-0.077531,42.723,550.12)"
           sodipodi:cy="479.90576"
           sodipodi:cx="241.5907"
           sodipodi:end="1.6217725"
           sodipodi:start="0" />
        <path
           id="path3986"
           style="fill:#ff9955;fill-opacity:0.98233002;stroke:#000000;stroke-width:4"
           sodipodi:type="star"
           sodipodi:sides="5"
           sodipodi:r1="19.640402"
           sodipodi:r2="9.8202009"
           sodipodi:arg1="1.160669"
           sodipodi:arg2="1.7889875"
           transform="translate(284.27,19.578)"
           inkscape:randomized="0"
           sodipodi:cy="390.63077"
           sodipodi:cx="3.1324563"
           inkscape:rounded="0"
           inkscape:flatsided="false"
           d="m 10.963597,408.64239 -9.956861,-8.42425 -12.584397,3.42638 4.9351031,-12.07277 -7.1474791,-10.90966 13.00692262,0.96287 8.16701198,-10.16893 3.1036174,12.66786 12.19497,4.62492 -11.088782,6.8663 z" />
        <path
           id="path3986-6"
           style="fill:#e3dbdb;fill-opacity:0.98233002;stroke:#000000;stroke-width:4"
           sodipodi:type="star"
           sodipodi:sides="5"
           sodipodi:r1="19.640402"
           sodipodi:r2="9.8202009"
           sodipodi:arg1="1.160669"
           sodipodi:arg2="1.7889875"
           transform="translate(225.79,35.822)"
           inkscape:randomized="0"
           sodipodi:cy="390.63077"
           sodipodi:cx="3.1324563"
           inkscape:rounded="0"
           inkscape:flatsided="false"
           d="m 10.963597,408.64239 -9.956861,-8.42425 -12.584397,3.42638 4.9351031,-12.07277 -7.1474791,-10.90966 13.00692262,0.96287 8.16701198,-10.16893 3.1036174,12.66786 12.19497,4.62492 -11.088782,6.8663 z" />
        <path
           id="path4032"
           sodipodi:rx="34.45702"
           sodipodi:ry="26.234322"
           style="fill:#ffe6d5;fill-opacity:0.98233002;stroke:#000000;stroke-width:4"
           sodipodi:type="arc"
           d="m 158.18905,582.88525 a 34.45702,26.234322 0 0 1 -17.73093,22.93619 34.45702,26.234322 0 0 1 -34.9448,-0.66887"
           sodipodi:open="true"
           transform="matrix(-0.78118,-0.62431,0.62431,-0.78118,9.9885,1084.4)"
           sodipodi:cy="582.88525"
           sodipodi:cx="123.73203"
           sodipodi:end="2.1279085"
           sodipodi:start="0" />
        <ellipse
           ry="19.577852"
           rx="19.186296"
           cy="479.90576"
           cx="241.5907"
           id="path4036"
           style="fill:#999999;fill-opacity:0.98233002;stroke:#000000;stroke-width:4"
           transform="translate(-0.78311,-6.2649)" />
        <ellipse
           transform="translate(48.162,-6.2649)"
           ry="19.577852"
           rx="19.186296"
           cy="479.90576"
           cx="241.5907"
           id="path4036-4"
           style="fill:#999999;fill-opacity:0.98233002;stroke:#000000;stroke-width:4" />
        <path
           inkscape:connector-curvature="0"
           id="path2842-8-6"
           style="fill:none;stroke:#000000;stroke-width:4"
           d="m 356.34,471.21 c 28.188,-39.557 39.823,35.171 3.9479,24.078 l -4.0686,-1.5201" />
        <g
           transform="translate(4.0917969e-6,1.9726563e-6)"
           style="stroke-width:3.77952766;stroke-miterlimit:4;stroke-dasharray:none"
           id="g101">
          <g
             id="g4850">
            <g
               id="g4855">
              <path
                 style="fill:none;stroke:#000000;stroke-width:3.77952766;stroke-linecap:butt;stroke-linejoin:miter;stroke-miterlimit:4;stroke-dasharray:none;stroke-opacity:1"
                 d="m 292.11498,574.74315 6.44169,269.4547"
                 id="path86"
                 inkscape:connector-curvature="0" />
              <path
                 style="fill:none;stroke:#000000;stroke-width:3.77952766;stroke-linecap:butt;stroke-linejoin:miter;stroke-miterlimit:4;stroke-dasharray:none;stroke-opacity:1"
                 d="M 294.29269,618.46002 421.49422,722.50297"
                 id="path88"
                 inkscape:connector-curvature="0" />
              <path
                 inkscape:connector-curvature="0"
                 id="path90"
                 d="M 294.29269,618.46002 167.09116,722.50297"
                 style="fill:none;stroke:#000000;stroke-width:3.77952766;stroke-linecap:butt;stroke-linejoin:miter;stroke-miterlimit:4;stroke-dasharray:none;stroke-opacity:1" />
            </g>
            <path
               style="fill:none;stroke:#000000;stroke-width:3.77952766;stroke-linecap:butt;stroke-linejoin:miter;stroke-miterlimit:4;stroke-dasharray:none;stroke-opacity:1"
               d="m 298.55667,844.19785 75.85875,145.77591"
               id="path92"
               inkscape:connector-curvature="0" />
            <path
               inkscape:connector-curvature="0"
               id="path94"
               d="M 298.55667,844.19785 222.69792,989.97376"
               style="fill:none;stroke:#000000;stroke-width:3.77952766;stroke-linecap:butt;stroke-linejoin:miter;stroke-miterlimit:4;stroke-dasharray:none;stroke-opacity:1" />
          </g>
        </g>
        <g
           id="g4879">
          <ellipse
             transform="matrix(0.54765,0,0,0.59824,265.74,269.19)"
             style="fill:#ffffff;fill-opacity:0.98233002;stroke:#000000;stroke-width:1.7471"
             id="path4636"
             cx="98.720421"
             cy="529.59271"
             rx="4.4872918"
             ry="5.9830556" />
          <ellipse
             transform="matrix(0.54765,0,0,0.59824,286.45,257.25)"
             style="fill:#ffffff;fill-opacity:0.98233002;stroke:#000000;stroke-width:1.7471"
             id="path4636-7"
             cx="98.720421"
             cy="529.59271"
             rx="4.4872918"
             ry="5.9830556" />
          <ellipse
             transform="matrix(0.54765,0,0,0.59824,281.16,260.16)"
             style="fill:#cccccc;fill-opacity:0.98233002;stroke:#000000;stroke-width:1.7471"
             id="path4636-74"
             cx="98.720421"
             cy="529.59271"
             rx="4.4872918"
             ry="5.9830556" />
          <ellipse
             transform="matrix(0.54765,0,0,0.59824,276.14,263.86)"
             style="fill:#ffffff;fill-opacity:0.98233002;stroke:#000000;stroke-width:1.7471"
             id="path4636-76"
             cx="98.720421"
             cy="529.59271"
             rx="4.4872918"
             ry="5.9830556" />
          <ellipse
             transform="matrix(0.54765,0,0,0.59824,271.38,267.3)"
             style="fill:#ffffff;fill-opacity:0.98233002;stroke:#000000;stroke-width:1.7471"
             id="path4636-1"
             cx="98.720421"
             cy="529.59271"
             rx="4.4872918"
             ry="5.9830556" />
          <ellipse
             transform="matrix(0.54765,0,0,0.59824,260.05,270.36)"
             style="fill:#ffffff;fill-opacity:0.98233002;stroke:#000000;stroke-width:1.7471"
             id="path4636-5"
             cx="98.720421"
             cy="529.59271"
             rx="4.4872918"
             ry="5.9830556" />
          <ellipse
             transform="matrix(0.54765,0,0,0.59824,254.58,273.61)"
             style="fill:#ffffff;fill-opacity:0.98233002;stroke:#000000;stroke-width:1.7471"
             id="path4636-2"
             cx="98.720421"
             cy="529.59271"
             rx="4.4872918"
             ry="5.9830556" />
          <ellipse
             transform="matrix(-0.54765,0,0,0.59824,324.68,265.25)"
             style="fill:#ffffff;fill-opacity:0.98233002;stroke:#000000;stroke-width:1.7471"
             id="path4636-8"
             cx="98.720421"
             cy="529.59271"
             rx="4.4872918"
             ry="5.9830556" />
          <ellipse
             transform="matrix(-0.54765,0,0,0.59824,303.97,253.31)"
             style="fill:#ffffff;fill-opacity:0.98233002;stroke:#000000;stroke-width:1.7471"
             id="path4636-7-8"
             cx="98.720421"
             cy="529.59271"
             rx="4.4872918"
             ry="5.9830556" />
          <ellipse
             transform="matrix(-0.54765,0,0,0.59824,314.28,259.92)"
             style="fill:#ffffff;fill-opacity:0.98233002;stroke:#000000;stroke-width:1.7471"
             id="path4636-76-3"
             cx="98.720421"
             cy="529.59271"
             rx="4.4872918"
             ry="5.9830556" />
          <ellipse
             transform="matrix(-0.70756,0,0,0.74027,324.52,181.66)"
             style="fill:#cccccc;fill-opacity:0.98233002;stroke:#000000;stroke-width:1.38170004"
             id="path4636-74-2"
             cx="98.720421"
             cy="529.59271"
             rx="4.4872918"
             ry="5.9830556" />
          <ellipse
             transform="matrix(-0.54765,0,0,0.59824,319.04,263.36)"
             style="fill:#ffffff;fill-opacity:0.98233002;stroke:#000000;stroke-width:1.7471"
             id="path4636-1-1"
             cx="98.720421"
             cy="529.59271"
             rx="4.4872918"
             ry="5.9830556" />
          <ellipse
             transform="matrix(-0.54765,0,0,0.59824,329.85,268.27)"
             style="fill:#ffffff;fill-opacity:0.98233002;stroke:#000000;stroke-width:1.7471"
             id="path4636-5-2"
             cx="98.720421"
             cy="529.59271"
             rx="4.4872918"
             ry="5.9830556" />
          <ellipse
             transform="matrix(-0.54765,0,0,0.59824,334.78,271.26)"
             style="fill:#ffffff;fill-opacity:0.98233002;stroke:#000000;stroke-width:1.7471"
             id="path4636-2-5"
             cx="98.720421"
             cy="529.59271"
             rx="4.4872918"
             ry="5.9830556" />
          <ellipse
             transform="matrix(0.54765,0,0,0.59824,248.36,274.41)"
             style="fill:#ffffff;fill-opacity:0.98233002;stroke:#000000;stroke-width:1.7471"
             id="path4636-7-8-7"
             cx="98.720421"
             cy="529.59271"
             rx="4.4872918"
             ry="5.9830556" />
          <ellipse
             transform="matrix(0.54765,0,0,0.59824,243.07,277.32)"
             style="fill:#ffffff;fill-opacity:0.98233002;stroke:#000000;stroke-width:1.7471"
             id="path4636-74-2-1"
             cx="98.720421"
             cy="529.59271"
             rx="4.4872918"
             ry="5.9830556" />
          <ellipse
             transform="matrix(-0.54765,0,0,0.59824,340.09,275.21)"
             style="fill:#ffffff;fill-opacity:0.98233002;stroke:#000000;stroke-width:1.7471"
             id="path4636-76-3-7"
             cx="98.720421"
             cy="529.59271"
             rx="4.4872918"
             ry="5.9830556" />
          <ellipse
             transform="matrix(-0.54765,0,0,0.59824,345.65,291.07)"
             style="fill:#ffffff;fill-opacity:0.98233002;stroke:#000000;stroke-width:1.7471"
             id="path4636-1-1-4"
             cx="98.720421"
             cy="529.59271"
             rx="4.4872918"
             ry="5.9830556" />
          <rect
             x="287.67999"
             y="595.71997"
             width="7.4036999"
             height="8.7257004"
             style="fill:#cccccc;fill-opacity:0.98233002;stroke:#000000"
             id="rect4785" />
          <ellipse
             transform="matrix(-0.54765,0,0,0.59824,346.24,298.2)"
             style="fill:#ffffff;fill-opacity:0.98233002;stroke:#000000;stroke-width:1.7471"
             id="path4636-1-1-4-7"
             cx="98.720421"
             cy="529.59271"
             rx="4.4872918"
             ry="5.9830556" />
          <rect
             x="-628.71002"
             y="-299.92001"
             width="5.6932001"
             height="16.004999"
             transform="matrix(0,-1,-1,0,0,0)"
             style="fill:#cccccc;fill-opacity:0.98233002;stroke:#000000"
             id="rect4818-2" />
          <rect
             x="288.73999"
             y="618.46002"
             width="5.5527"
             height="22.211"
             style="fill:#cccccc;fill-opacity:0.98233002;stroke:#000000"
             id="rect4818" />
        </g>
      </g>
    </g>
  </g>
</svg>
